<svg width="104" height="34" viewBox="0 0 104 34" fill="none" xmlns="http://www.w3.org/2000/svg">
<path fill-rule="evenodd" clip-rule="evenodd" d="M5.57088 17.0115L0.325676 8.98749H4.25667C4.51254 8.98749 4.70055 9.0196 4.82073 9.08382C4.94091 9.14804 5.04752 9.25571 5.14056 9.40682L8.51331 14.9715C8.55208 14.8733 8.59666 14.7788 8.64706 14.6882C8.69745 14.5975 8.75367 14.503 8.81569 14.4048L11.7698 9.46349C11.9636 9.14615 12.2272 8.98749 12.5606 8.98749H16.3288L11.0138 16.8415L16.4451 25.5002H12.5141C12.2582 25.5002 12.0508 25.4397 11.8919 25.3188C11.7329 25.1979 11.6069 25.0544 11.5139 24.8882L8.11788 19.1082C8.05586 19.2744 7.98608 19.4179 7.90854 19.5388L4.74514 24.8882C4.6521 25.0468 4.52804 25.1885 4.37297 25.3132C4.2179 25.4378 4.02407 25.5002 3.79146 25.5002H0.116333L5.57088 17.0115ZM35.3751 25.5002H32.328C31.9868 25.5002 31.7058 25.4227 31.4848 25.2678C31.2638 25.1129 31.1107 24.9146 31.0254 24.6728L30.0252 21.7942H23.5821L22.5819 24.6728C22.5044 24.8844 22.3532 25.0752 22.1284 25.2452C21.9035 25.4152 21.6283 25.5002 21.3026 25.5002H18.2322L24.7917 8.98749H28.8157L35.3751 25.5002ZM24.4893 19.1875H29.1181L27.5596 14.6655C27.4588 14.3784 27.3406 14.0403 27.2049 13.6512C27.0692 13.262 26.9355 12.8408 26.8037 12.3875C26.6796 12.8484 26.5517 13.2753 26.4199 13.6682C26.2881 14.061 26.164 14.401 26.0477 14.6882L24.4893 19.1875ZM40.4652 8.98749C40.6358 8.98749 40.7793 8.99504 40.8956 9.01015C41.0119 9.02526 41.1165 9.0536 41.2096 9.09515C41.3026 9.13671 41.3918 9.19526 41.4771 9.27082C41.5624 9.34637 41.6593 9.44837 41.7678 9.57682L49.8159 19.4935C49.7849 19.1762 49.7616 18.8683 49.7461 18.5698C49.7306 18.2714 49.7228 17.9899 49.7228 17.7255V8.98749H53.1886V25.5002H51.1417C50.8393 25.5002 50.5835 25.4548 50.3741 25.3642C50.1648 25.2735 49.9632 25.1073 49.7694 24.8655L41.7794 15.0282C41.8027 15.3153 41.8221 15.5967 41.8376 15.8725C41.8531 16.1483 41.8609 16.407 41.8609 16.6488V25.5002H38.3951V8.98749H40.4652ZM69.9322 8.98749V12.0248H65.1638V25.5002H61.2328V12.0248H56.4645V8.98749H69.9322ZM89.2344 17.2382C89.2344 18.4319 89.0231 19.5426 88.6005 20.5702C88.178 21.5977 87.5829 22.4911 86.8153 23.2505C86.0477 24.0098 85.1231 24.6048 84.0415 25.0355C82.9599 25.4662 81.7601 25.6815 80.442 25.6815C79.1239 25.6815 77.9221 25.4662 76.8366 25.0355C75.7511 24.6048 74.8227 24.0098 74.0512 23.2505C73.2797 22.4911 72.6827 21.5977 72.2602 20.5702C71.8376 19.5426 71.6263 18.4319 71.6263 17.2382C71.6263 16.0444 71.8376 14.9337 72.2602 13.9062C72.6827 12.8786 73.2797 11.987 74.0512 11.2315C74.8227 10.4759 75.7511 9.88282 76.8366 9.45215C77.9221 9.02148 79.1239 8.80615 80.442 8.80615C81.7601 8.80615 82.9599 9.02337 84.0415 9.45782C85.1231 9.89227 86.0477 10.4873 86.8153 11.2428C87.5829 11.9984 88.178 12.8899 88.6005 13.9175C89.0231 14.945 89.2344 16.0519 89.2344 17.2382ZM85.2103 17.2382C85.2103 16.4221 85.1018 15.6874 84.8847 15.0338C84.6676 14.3803 84.3555 13.8268 83.9485 13.3735C83.5414 12.9201 83.0433 12.5726 82.454 12.3308C81.8647 12.089 81.1941 11.9682 80.442 11.9682C79.6821 11.9682 79.0056 12.089 78.4125 12.3308C77.8194 12.5726 77.3193 12.9201 76.9122 13.3735C76.5052 13.8268 76.1931 14.3803 75.976 15.0338C75.7589 15.6874 75.6503 16.4221 75.6503 17.2382C75.6503 18.0617 75.7589 18.8003 75.976 19.4538C76.1931 20.1074 76.5052 20.6608 76.9122 21.1142C77.3193 21.5675 77.8194 21.9132 78.4125 22.1512C79.0056 22.3892 79.6821 22.5082 80.442 22.5082C81.1941 22.5082 81.8647 22.3892 82.454 22.1512C83.0433 21.9132 83.5414 21.5675 83.9485 21.1142C84.3555 20.6608 84.6676 20.1074 84.8847 19.4538C85.1018 18.8003 85.2103 18.0617 85.2103 17.2382ZM102.21 12.3422C102.093 12.5235 101.971 12.6595 101.843 12.7502C101.715 12.8408 101.551 12.8862 101.349 12.8862C101.171 12.8862 100.979 12.8314 100.773 12.7218C100.568 12.6123 100.335 12.4895 100.076 12.3535C99.8159 12.2175 99.5193 12.0947 99.1859 11.9852C98.8525 11.8756 98.4726 11.8208 98.0462 11.8208C97.3096 11.8208 96.761 11.9738 96.4005 12.2798C96.04 12.5858 95.8597 12.9995 95.8597 13.5208C95.8597 13.8533 95.9682 14.129 96.1853 14.3482C96.4024 14.5673 96.6874 14.7562 97.0401 14.9148C97.3929 15.0735 97.7961 15.2189 98.2497 15.3512C98.7033 15.4834 99.1665 15.6307 99.6395 15.7932C100.112 15.9556 100.576 16.1464 101.029 16.3655C101.483 16.5846 101.886 16.8642 102.239 17.2042C102.592 17.5442 102.877 17.9578 103.094 18.4452C103.311 18.9325 103.419 19.5199 103.419 20.2075C103.419 20.9706 103.284 21.6846 103.012 22.3495C102.741 23.0144 102.347 23.5943 101.832 24.0892C101.316 24.584 100.68 24.9732 99.9244 25.2565C99.1685 25.5398 98.3098 25.6815 97.3483 25.6815C96.8211 25.6815 96.2842 25.6286 95.7376 25.5228C95.1909 25.417 94.6618 25.2678 94.1501 25.0752C93.6383 24.8825 93.1576 24.6539 92.7079 24.3895C92.2582 24.125 91.8667 23.8304 91.5333 23.5055L92.6963 21.7148C92.7816 21.5788 92.9017 21.4693 93.0568 21.3862C93.2119 21.303 93.3786 21.2615 93.5569 21.2615C93.7895 21.2615 94.0241 21.3333 94.2605 21.4768C94.497 21.6204 94.7645 21.779 95.063 21.9528C95.3615 22.1266 95.7046 22.2853 96.0923 22.4288C96.48 22.5724 96.9374 22.6442 97.4647 22.6442C98.178 22.6442 98.7323 22.4912 99.1278 22.1852C99.5232 21.8792 99.7209 21.3937 99.7209 20.7288C99.7209 20.3435 99.6124 20.0299 99.3953 19.7882C99.1782 19.5464 98.8932 19.3462 98.5404 19.1875C98.1877 19.0288 97.7864 18.889 97.3367 18.7682C96.887 18.6473 96.4257 18.5132 95.9527 18.3658C95.4798 18.2185 95.0184 18.0372 94.5687 17.8218C94.119 17.6065 93.7178 17.3232 93.365 16.9718C93.0122 16.6205 92.7273 16.1823 92.5102 15.6572C92.2931 15.132 92.1846 14.4842 92.1846 13.7135C92.1846 13.0939 92.3125 12.4895 92.5684 11.9002C92.8242 11.3108 93.2003 10.7857 93.6965 10.3248C94.1927 9.86393 94.8013 9.4956 95.5224 9.21982C96.2435 8.94404 97.0692 8.80615 97.9996 8.80615C98.5191 8.80615 99.025 8.84582 99.5174 8.92515C100.01 9.00449 100.477 9.1216 100.919 9.27648C101.361 9.43137 101.774 9.61648 102.157 9.83182C102.541 10.0472 102.884 10.2908 103.187 10.5628L102.21 12.3422Z" fill="white"/>
<path d="M103.702 0H0V2.83333H103.702V0Z" fill="#4A90E2"/>
<path d="M103.702 31.1665H0V33.9998H103.702V31.1665Z" fill="#4A90E2"/>
</svg>
